<svg width="154" height="65" viewBox="0 0 154 65" fill="none" xmlns="http://www.w3.org/2000/svg">
<path d="M130.701 9.36405C129.465 9.64919 128.135 9.45909 127.279 8.79377C127.754 7.84332 128.8 7.08295 130.131 6.79781C131.176 6.60772 132.126 6.70277 132.982 6.98791C132.887 6.89286 132.792 6.89286 132.697 6.79781C131.746 6.22754 130.796 5.65727 129.75 5.08699C130.701 5.56222 131.556 6.03745 132.412 6.51268C131.841 5.9424 131.366 5.18204 131.176 4.23158C130.891 2.99599 131.081 1.66535 131.651 0.809937C132.602 1.28516 133.362 2.33067 133.647 3.56626C133.932 4.80186 133.742 6.03745 133.172 6.89286C134.503 7.74827 135.738 8.69873 136.974 9.74423C136.404 9.07891 136.023 8.03341 135.928 6.98791C135.928 5.65727 136.404 4.42167 137.164 3.66131C138.019 4.32663 138.59 5.56222 138.59 6.89286C138.59 8.2235 138.209 9.45909 137.449 10.2195C138.685 11.36 139.825 12.5006 140.776 13.7361C140.395 12.9758 140.205 12.0253 140.3 11.0749C140.395 9.74423 141.061 8.50864 142.011 7.93836C142.772 8.69873 143.152 10.0294 143.057 11.36C142.962 12.6906 142.296 13.8312 141.441 14.4965C142.106 15.3519 142.677 16.1123 143.152 16.9677C143.437 17.4429 143.817 18.0132 144.102 18.4884C143.817 17.633 143.817 16.6826 144.102 15.7321C144.482 14.4015 145.338 13.356 146.383 12.7857C146.954 13.7361 147.144 15.0668 146.764 16.3974C146.383 17.7281 145.528 18.7736 144.577 19.2488C145.243 20.4844 145.813 21.815 146.288 23.1457C146.288 22.3853 146.478 21.6249 146.859 20.9596C147.524 19.629 148.664 18.7736 149.71 18.4884C150.09 19.5339 149.995 20.9596 149.33 22.2903C148.664 23.5259 147.714 24.3813 146.668 24.6664C146.668 24.8565 146.764 24.9515 146.859 25.1416C147.239 26.3772 147.524 27.7079 147.714 28.9435C147.904 28.1831 148.189 27.4227 148.759 26.7574C149.71 25.6169 150.946 24.8565 152.086 24.7615C152.276 25.902 151.991 27.3277 151.041 28.4682C150.185 29.6088 149.045 30.2741 147.904 30.3691C148.094 31.6047 148.094 32.8403 148.094 34.0759V34.4561C148.379 33.7908 148.759 33.2205 149.33 32.6502C150.47 31.6047 151.801 31.1295 153.037 31.2246C153.037 32.4601 152.466 33.7908 151.421 34.8363C150.375 35.7867 149.14 36.262 148.094 36.262C147.999 37.5926 147.904 38.9233 147.619 40.1589C147.999 39.5886 148.474 39.1133 149.14 38.7332C150.375 37.8778 151.896 37.6877 153.037 37.9728C152.846 39.2084 151.991 40.444 150.755 41.2044C149.615 41.9647 148.284 42.2499 147.239 42.0598C147.144 42.4399 147.049 42.7251 146.954 43.1053C146.764 43.9607 146.478 44.8161 146.098 45.5765C146.573 45.1963 147.049 44.8161 147.714 44.531C149.14 43.8656 150.66 43.8656 151.896 44.4359C151.516 45.6715 150.47 46.717 149.045 47.3823C147.809 47.9526 146.383 48.0476 145.338 47.6675C144.863 48.713 144.387 49.7585 143.817 50.7089C144.292 50.4238 144.958 50.1386 145.623 49.9486C147.144 49.5684 148.664 49.8535 149.71 50.6139C149.14 51.7544 147.904 52.6098 146.383 52.99C145.053 53.2752 143.722 53.1801 142.677 52.6098C142.011 53.5603 141.346 54.5107 140.586 55.3662C141.061 55.1761 141.631 55.081 142.201 54.986C143.817 54.8909 145.338 55.4612 146.193 56.3166C145.433 57.3621 144.007 58.0274 142.391 58.1225C141.061 58.2175 139.73 57.8373 138.875 57.172C138.114 57.9324 137.354 58.6928 136.499 59.3581C137.069 59.263 137.639 59.263 138.209 59.3581C139.92 59.5482 141.346 60.4036 142.106 61.5441C141.061 62.3995 139.445 62.8748 137.734 62.6847C136.309 62.4946 135.073 61.8293 134.313 60.9739C132.887 62.0194 131.461 62.8748 129.845 63.6351C129.56 63.7302 129.275 63.6351 129.085 63.35C128.99 63.0649 129.085 62.7797 129.37 62.5896C130.606 62.0194 131.746 61.354 132.887 60.5937C132.127 59.5482 131.746 58.1225 131.936 56.5067C132.127 54.7959 132.982 53.3702 134.122 52.6098C134.978 53.6553 135.453 55.2711 135.263 56.9819C135.168 57.9324 134.788 58.8828 134.313 59.5482C135.358 58.6928 136.404 57.8373 137.449 56.8869C136.594 56.0315 136.023 54.7959 135.928 53.2752C135.833 51.6594 136.404 50.2337 137.259 49.2832C138.304 50.0436 138.97 51.4693 139.065 53.0851C139.16 54.0355 138.97 54.8909 138.685 55.6513C139.635 54.7008 140.491 53.6553 141.251 52.5148C140.3 51.8495 139.54 50.7089 139.16 49.3783C138.78 47.8576 139.065 46.3368 139.825 45.2913C140.966 45.8616 141.821 47.0972 142.201 48.6179C142.391 49.4733 142.391 50.3287 142.296 51.0891C142.391 50.9941 142.391 50.899 142.486 50.804C143.152 49.8535 143.627 48.808 144.197 47.7625C143.152 47.2873 142.106 46.3368 141.631 45.0062C140.966 43.5805 140.966 42.0598 141.536 40.8242C142.772 41.2044 143.817 42.2499 144.482 43.7706C144.863 44.626 144.958 45.3864 144.958 46.2418C145.433 45.1012 145.908 43.8656 146.288 42.63V42.535C145.243 42.2499 144.102 41.4895 143.342 40.2539C142.486 38.9233 142.296 37.4976 142.677 36.357C143.912 36.5471 145.053 37.4025 145.908 38.6381C146.383 39.3034 146.573 40.0638 146.764 40.8242C147.049 39.4935 147.334 38.0678 147.429 36.6422C146.288 36.5471 145.053 35.9768 144.102 35.0264C143.057 33.8858 142.582 32.5552 142.677 31.3196C143.912 31.3196 145.243 31.8899 146.288 32.9354C146.954 33.6007 147.334 34.3611 147.524 35.1214C147.524 34.6462 147.524 34.0759 147.619 33.6007C147.619 32.6502 147.619 31.6047 147.524 30.6543C146.478 30.8444 145.148 30.4642 144.007 29.6088C142.772 28.7534 142.106 27.5178 142.011 26.2822C143.152 26.0921 144.577 26.3772 145.718 27.2326C146.478 27.8029 146.954 28.4682 147.334 29.1336C147.144 27.7079 146.859 26.2822 146.478 24.9515C145.433 25.3317 144.102 25.1416 142.867 24.5714C141.536 23.906 140.681 22.7655 140.395 21.72C141.441 21.3398 142.867 21.4349 144.197 22.1002C145.053 22.5754 145.718 23.1457 146.098 23.811C145.623 22.2903 145.053 20.7695 144.387 19.3438C143.437 19.8191 142.201 20.0092 140.871 19.629C139.54 19.2488 138.495 18.3934 138.019 17.3479C138.97 16.7776 140.3 16.5875 141.631 16.9677C142.486 17.2528 143.247 17.7281 143.817 18.2983C143.437 17.633 143.152 17.0628 142.772 16.3974C142.391 15.7321 141.916 15.1618 141.536 14.4965C140.681 15.1618 139.445 15.447 138.209 15.2569C136.879 15.0668 135.738 14.4015 135.073 13.451C135.928 12.7857 137.164 12.4055 138.59 12.5956C139.445 12.6906 140.205 13.0708 140.871 13.5461C139.92 12.3105 138.97 11.1699 137.924 10.1244C137.259 10.8848 136.023 11.4551 134.788 11.4551C133.457 11.4551 132.222 10.9798 131.461 10.2195C132.127 9.36405 133.362 8.79377 134.693 8.79377C135.738 8.79377 136.594 8.98386 137.354 9.45909C136.118 8.31854 134.883 7.27304 133.552 6.41763C132.982 8.31855 132.031 9.07891 130.701 9.36405ZM22.5388 9.36405C23.7744 9.64919 25.1051 9.45909 25.9605 8.79377C25.4853 7.84332 24.4398 7.08295 23.1091 6.79781C22.0636 6.60772 21.1132 6.70277 20.2577 6.98791C20.3528 6.89286 20.4478 6.89286 20.5429 6.79781C21.4933 6.22754 22.4438 5.65727 23.4893 5.08699C22.5388 5.56222 21.6834 6.03745 20.828 6.51268C21.3983 5.9424 21.8735 5.18204 22.0636 4.23158C22.3488 2.99599 22.1587 1.66535 21.5884 0.809937C20.6379 1.28516 19.8776 2.33067 19.5924 3.56626C19.3073 4.80186 19.4974 6.03745 20.0677 6.89286C18.737 7.74827 17.5014 8.69873 16.2658 9.74423C16.8361 9.07891 17.2163 8.03341 17.3113 6.98791C17.3113 5.65727 16.8361 4.42167 16.0757 3.66131C15.2203 4.32663 14.6501 5.56222 14.6501 6.89286C14.6501 8.2235 15.1253 9.45909 15.7906 10.2195C14.555 11.36 13.4145 12.5006 12.464 13.7361C12.8442 12.9758 13.0343 12.0253 12.9392 11.0749C12.8442 9.74423 12.1789 8.50864 11.2284 7.93836C10.468 8.69873 10.0879 10.0294 10.1829 11.36C10.2779 12.6906 10.9433 13.8312 11.7987 14.4965C11.1334 15.3519 10.5631 16.1123 10.0879 16.9677C9.80272 17.4429 9.42254 18.0132 9.1374 18.4884C9.42254 17.633 9.42254 16.6826 9.1374 15.7321C8.75722 14.4015 7.90181 13.356 6.85631 12.7857C6.28603 13.7361 6.09594 15.0668 6.47612 16.3974C6.85631 17.7281 7.71172 18.7736 8.66217 19.2488C7.99685 20.4844 7.42658 21.815 6.95135 23.1457C6.95135 22.3853 6.76126 21.6249 6.38108 20.9596C5.71576 19.629 4.57521 18.7736 3.52971 18.4884C3.14952 19.5339 3.24457 20.9596 3.90989 22.2903C4.57521 23.5259 5.52567 24.3813 6.57117 24.6664C6.57117 24.8565 6.47612 24.9515 6.38108 25.1416C6.00089 26.3772 5.71576 27.7079 5.52567 28.9435C5.33557 28.1831 5.05044 27.4227 4.48016 26.7574C3.52971 25.6169 2.29411 24.8565 1.15357 24.7615C0.963474 25.902 1.24861 27.3277 2.19907 28.4682C3.05448 29.6088 4.19503 30.2741 5.33557 30.3691C5.14548 31.6047 5.14548 32.8403 5.14548 34.0759V34.4561C4.7653 34.3611 4.38512 33.6957 3.81484 33.2205C2.6743 32.175 1.34366 31.6998 0.108063 31.7948C0.108063 33.0304 0.678337 34.3611 1.72384 35.4066C2.76934 36.357 4.00494 36.8323 5.05044 36.8323C5.14548 38.1629 5.24053 39.4935 5.52567 40.7291C5.14548 40.1588 4.67025 39.6836 4.00494 39.3034C2.76934 38.448 1.24861 38.2579 0.108063 38.5431C0.298154 39.7787 1.15357 41.0143 2.38916 41.7746C3.52971 42.535 4.86035 42.8201 5.90585 42.63C6.00089 43.0102 6.09594 43.2954 6.19099 43.6755C6.38108 44.531 6.66621 45.3864 7.0464 46.1467C6.57117 45.7665 6.09594 45.3864 5.43062 45.1012C4.00494 44.4359 2.4842 44.4359 1.24861 45.0062C1.62879 46.2418 2.6743 47.2873 4.09998 47.9526C5.33557 48.5229 6.76126 48.6179 7.80676 48.2377C8.28199 49.2832 8.75722 50.3287 9.32749 51.2792C8.85226 50.9941 8.18695 50.7089 7.52163 50.5188C6.00089 50.1386 4.48016 50.4238 3.43466 51.1841C4.00494 52.3247 5.24053 53.1801 6.76126 53.5603C8.0919 53.8454 9.42254 53.7504 10.468 53.1801C11.1334 54.1306 11.7987 55.081 12.559 55.9364C12.0838 55.7463 11.5135 55.6513 10.9433 55.5563C9.32749 55.4612 7.80676 56.0315 6.95135 56.8869C7.71172 57.9324 9.1374 58.5977 10.7532 58.6928C12.0838 58.7878 13.4145 58.4076 14.2699 57.7423C15.0302 58.5027 15.7906 59.263 16.646 59.9284C16.0757 59.8333 15.5055 59.8333 14.9352 59.9284C13.2244 60.1184 11.7987 60.9739 11.0383 62.1144C12.0838 62.9698 13.6996 63.445 15.4104 63.2549C16.8361 63.0649 18.0717 62.3995 18.8321 61.5441C20.2577 62.5896 21.6834 63.445 23.2992 64.2054C23.5843 64.3005 23.8695 64.2054 24.0596 63.9203C24.1546 63.6351 24.0596 63.35 23.7744 63.1599C22.5388 62.5896 21.3983 61.9243 20.2577 61.1639C21.0181 60.1184 21.3983 58.6928 21.2082 57.077C21.0181 55.3662 20.1627 53.9405 19.0222 53.1801C18.1667 54.2256 17.6915 55.8414 17.8816 57.5522C17.9766 58.5027 18.3568 59.4531 18.8321 60.1184C17.7866 59.263 16.7411 58.4076 15.6956 57.4572C16.551 56.6018 17.1212 55.3662 17.2163 53.8454C17.3113 52.2297 16.7411 50.804 15.8856 49.8535C14.8401 50.6139 14.1748 52.0396 14.0798 53.6553C13.9847 54.6058 14.1748 55.4612 14.46 56.2216C13.5095 55.2711 12.6541 54.2256 11.8937 53.0851C12.8442 52.4197 13.6045 51.2792 13.9847 49.9486C14.3649 48.4278 14.0798 46.9071 13.3194 45.8616C12.1789 46.4319 11.3235 47.6675 10.9433 49.1882C10.7532 50.0436 10.7532 50.899 10.8482 51.6594C10.7532 51.5643 10.7532 51.4693 10.6581 51.3742C9.99281 50.4238 9.51758 49.3783 8.94731 48.3328C9.99281 47.8576 11.0383 46.9071 11.5135 45.5765C12.1789 44.1508 12.1789 42.63 11.6086 41.3944C10.373 41.7746 9.32749 42.8201 8.66217 44.3409C8.28199 45.1963 8.18694 45.9566 8.18694 46.812C7.71172 45.6715 7.23649 44.4359 6.85631 43.2003V43.1053C7.90181 42.8201 9.04236 42.0598 9.80272 40.8242C10.6581 39.4935 10.8482 38.0678 10.468 36.9273C9.23245 37.1174 8.0919 37.9728 7.23649 39.2084C6.76126 39.8737 6.57117 40.6341 6.38108 41.3944C6.09594 40.0638 5.8108 38.6381 5.71576 37.2124C6.85631 37.1174 8.0919 36.5471 9.04236 35.5967C10.0879 34.4561 10.5631 33.1255 10.468 31.8899C9.23245 31.8899 7.90181 32.4602 6.85631 33.5057C6.19099 34.171 5.8108 34.9313 5.62071 35.6917C5.62071 35.2165 5.62071 34.6462 5.52567 34.171C5.52567 33.2205 5.52567 32.175 5.62071 31.2246C6.66621 31.4146 7.99685 31.0345 9.1374 30.1791C10.373 29.3236 11.0383 28.0881 11.1334 26.8525C9.99281 26.6624 8.56713 26.9475 7.42658 27.8029C6.66621 28.3732 6.19099 29.0385 5.8108 29.7038C6.00089 28.2781 6.28603 26.8525 6.66621 25.5218C7.71172 25.902 9.04236 25.7119 10.2779 25.1416C11.6086 24.4763 12.464 23.3358 12.7491 22.2903C11.7036 21.9101 10.2779 22.0051 8.94731 22.6704C8.0919 23.1457 7.42658 23.7159 7.0464 24.3813C7.52163 22.8605 8.0919 21.3398 8.75722 19.9141C9.70768 20.3893 10.9433 20.5794 12.2739 20.1993C13.6045 19.8191 14.6501 18.9637 15.1253 17.9182C14.1748 17.3479 12.8442 17.1578 11.5135 17.538C10.6581 17.8231 9.89777 18.2983 9.32749 18.8686C9.70768 18.2033 9.99281 17.633 10.373 16.9677C10.7532 16.3024 11.2284 15.7321 11.6086 15.0668C12.464 15.7321 13.6996 16.0172 14.9352 15.8272C16.2658 15.6371 17.4064 14.9717 18.0717 14.0213C17.2163 13.356 15.9807 12.9758 14.555 13.1659C13.6996 13.2609 12.9392 13.6411 12.2739 14.1163C13.2244 12.8807 14.1748 11.7402 15.2203 10.6947C15.8856 11.4551 17.1212 12.0253 18.3568 12.0253C19.6875 12.0253 20.9231 11.5501 21.6834 10.7897C21.0181 9.93432 19.7825 9.36405 18.4519 9.36405C17.4064 9.36405 16.551 9.55414 15.7906 10.0294C17.0262 8.88882 18.2618 7.84332 19.5924 6.98791C20.2577 8.31855 21.3032 8.98387 22.5388 9.36405Z" fill="#F8F8F8"/>
</svg>
