<svg width="1385" height="218" viewBox="0 0 1385 218" fill="none" xmlns="http://www.w3.org/2000/svg">
<g filter="url(#filter0_d_71_403)">
<path d="M7.23535 208V2.60938H46.9131V208H7.23535ZM63.251 208V2.60938H125.802L143.073 127.828L160.228 2.60938H223.362V208H185.785V60.0254L162.212 208H125.335L100.361 60.0254V208H63.251ZM241.567 208V2.60938H304.118L321.39 127.828L338.544 2.60938H401.679V208H364.102V60.0254L340.528 208H303.651L278.678 60.0254V208H241.567ZM468.897 209.867C452.482 209.867 439.917 204.927 431.204 195.046C422.568 185.088 418.25 170.734 418.25 151.984V54.4238C418.25 36.8411 422.529 23.4985 431.087 14.396C439.723 5.29346 452.326 0.742188 468.897 0.742188C485.469 0.742188 498.033 5.29346 506.591 14.396C515.227 23.4985 519.545 36.8411 519.545 54.4238V151.984C519.545 170.734 515.188 185.088 506.475 195.046C497.839 204.927 485.313 209.867 468.897 209.867ZM469.248 172.057C475.472 172.057 478.583 166.027 478.583 153.968V53.7236C478.583 43.6097 475.549 38.5527 469.481 38.5527C462.635 38.5527 459.211 43.7264 459.211 54.0737V154.202C459.211 160.581 459.989 165.171 461.545 167.972C463.101 170.695 465.669 172.057 469.248 172.057ZM536.116 208V2.60938H599.134C609.637 2.60938 617.572 5.02116 622.94 9.84473C628.309 14.5905 631.887 21.2812 633.677 29.917C635.544 38.4749 636.478 48.55 636.478 60.1421C636.478 71.3452 635.038 80.2922 632.16 86.9829C629.359 93.6737 624.03 98.3027 616.172 100.87C622.629 102.193 627.142 105.421 629.709 110.556C632.354 115.613 633.677 122.187 633.677 130.278V208H593.182V127.594C593.182 121.604 591.937 117.908 589.448 116.508C587.036 115.03 583.107 114.291 577.661 114.291V208H536.116ZM577.895 78.6973H587.814C593.493 78.6973 596.333 72.5122 596.333 60.1421C596.333 52.1287 595.711 46.8773 594.466 44.3877C593.221 41.8981 590.887 40.6533 587.464 40.6533H577.895V78.6973ZM667.636 208V42.0537H643.246V2.60938H733.104V42.0537H708.714V208H667.636ZM735.905 208L755.744 2.60938H825.414L844.902 208H806.042L803.124 174.857H778.384L775.816 208H735.905ZM781.301 142.065H799.973L790.987 37.6191H789.12L781.301 142.065ZM857.506 208V2.60938H898.584V172.99H940.829V208H857.506ZM950.632 208V2.60938H990.31V208H950.632ZM1001.28 208V170.656L1048.31 40.4199H1005.83V2.60938H1091.6V38.5527L1043.76 170.189H1089.62V208H1001.28ZM1102.81 208V2.60938H1142.49V208H1102.81ZM1158.82 208V2.60938H1201.07L1219.97 100.987V2.60938H1259.65V208H1219.51L1198.97 105.305V208H1158.82ZM1320.22 209.867C1290.89 209.867 1276.22 188.861 1276.22 146.85V58.2749C1276.22 19.9198 1293.03 0.742188 1326.64 0.742188C1340.49 0.742188 1351.1 3.54297 1358.5 9.14453C1365.89 14.6683 1370.98 22.7594 1373.78 33.418C1376.58 44.0765 1377.98 57.069 1377.98 72.3955H1337.84V54.1904C1337.84 49.7559 1337.22 46.0604 1335.97 43.104C1334.81 40.0698 1332.32 38.5527 1328.5 38.5527C1323.76 38.5527 1320.61 40.1476 1319.05 43.3374C1317.57 46.5272 1316.83 50.0282 1316.83 53.8403V153.385C1316.83 158.909 1317.53 163.421 1318.93 166.922C1320.41 170.345 1323.25 172.057 1327.45 172.057C1331.81 172.057 1334.69 170.345 1336.09 166.922C1337.57 163.421 1338.31 158.831 1338.31 153.151V123.86H1327.34V88.3833H1377.52V208H1361.06L1354.06 190.729C1346.9 203.488 1335.62 209.867 1320.22 209.867Z" fill="#3D3D3D" fill-opacity="0.4" shape-rendering="crispEdges"/>
</g>
<path d="M388.809 212V126.062H405.898V156.775H414.004V126.062H431.094V212H414.004V173.035H405.898V212H388.809ZM452.529 212.781C448.623 212.781 445.628 211.967 443.545 210.34C441.494 208.712 440.094 206.45 439.346 203.553C438.597 200.623 438.223 197.205 438.223 193.299V138.758H455.801V191.248C455.801 194.178 456.029 196.229 456.484 197.4C456.94 198.54 458.014 199.109 459.707 199.109C461.53 199.109 462.669 198.296 463.125 196.668C463.613 195.04 463.857 192.941 463.857 190.369V138.758H481.289V212H463.809V204.188C462.702 206.987 461.367 209.119 459.805 210.584C458.275 212.049 455.85 212.781 452.529 212.781ZM488.32 212V138.758H505.41V147.254C506.191 144.259 507.526 141.964 509.414 140.369C511.302 138.774 514.069 137.977 517.715 137.977C520.645 137.977 523.135 138.66 525.186 140.027C527.269 141.362 528.734 143.136 529.58 145.35C530.915 142.941 532.477 141.118 534.268 139.881C536.09 138.611 538.678 137.977 542.031 137.977C546.1 137.977 549.225 138.855 551.406 140.613C553.62 142.339 555.15 144.747 555.996 147.84C556.875 150.9 557.314 154.448 557.314 158.484V212H539.883V158.191C539.883 153.471 538.678 151.111 536.27 151.111C535 151.111 534.023 151.551 533.34 152.43C532.656 153.276 532.184 154.334 531.924 155.604C531.663 156.873 531.533 158.143 531.533 159.412V212H514.102V158.191C514.102 156.661 513.906 155.132 513.516 153.602C513.158 152.072 512.214 151.307 510.684 151.307C509.382 151.307 508.372 151.779 507.656 152.723C506.94 153.667 506.452 154.839 506.191 156.238C505.931 157.605 505.801 158.956 505.801 160.291V212H488.32ZM577.529 212.781C573.46 212.781 570.352 211.837 568.203 209.949C566.087 208.061 564.639 205.473 563.857 202.186C563.076 198.898 562.686 195.171 562.686 191.004C562.686 186.544 563.125 182.898 564.004 180.066C564.883 177.202 566.38 174.858 568.496 173.035C570.645 171.212 573.59 169.666 577.334 168.396L588.174 164.686V157.166C588.174 153.227 586.888 151.258 584.316 151.258C581.973 151.258 580.801 152.853 580.801 156.043V160.438H563.809C563.776 160.177 563.76 159.852 563.76 159.461C563.76 159.038 563.76 158.566 563.76 158.045C563.76 150.753 565.469 145.594 568.887 142.566C572.337 139.507 577.79 137.977 585.244 137.977C589.15 137.977 592.65 138.676 595.742 140.076C598.835 141.443 601.276 143.478 603.066 146.18C604.889 148.882 605.801 152.218 605.801 156.189V212H588.418V203.309C587.572 206.368 586.172 208.712 584.219 210.34C582.266 211.967 580.036 212.781 577.529 212.781ZM584.414 199.207C585.846 199.207 586.823 198.605 587.344 197.4C587.865 196.196 588.125 194.894 588.125 193.494V173.084C585.716 174.061 583.844 175.298 582.51 176.795C581.175 178.26 580.508 180.424 580.508 183.289V192.713C580.508 197.042 581.81 199.207 584.414 199.207ZM612.539 212V138.758H630.02V148.084C630.671 145.285 631.875 142.908 633.633 140.955C635.423 138.969 637.897 137.977 641.055 137.977C646.133 137.977 649.811 139.539 652.09 142.664C654.401 145.789 655.557 150.07 655.557 155.506V212H638.32V157.312C638.32 155.88 638.027 154.562 637.441 153.357C636.855 152.12 635.846 151.502 634.414 151.502C633.079 151.502 632.087 151.974 631.436 152.918C630.817 153.829 630.426 154.985 630.264 156.385C630.101 157.752 630.02 159.119 630.02 160.486V212H612.539ZM682.51 212.781C668.057 212.781 660.83 205.457 660.83 190.809V184.998H678.408V193.592C678.408 195.252 678.734 196.554 679.385 197.498C680.036 198.442 681.077 198.914 682.51 198.914C685.049 198.914 686.318 197.01 686.318 193.201C686.318 190.011 685.651 187.635 684.316 186.072C682.982 184.477 681.354 182.947 679.434 181.482L670.107 174.305C667.178 172.026 664.948 169.617 663.418 167.078C661.888 164.539 661.123 161.007 661.123 156.482C661.123 152.283 662.116 148.816 664.102 146.082C666.12 143.348 668.773 141.313 672.061 139.979C675.381 138.644 678.962 137.977 682.803 137.977C696.995 137.977 704.092 145.057 704.092 159.217V160.584H686.025V157.801C686.025 156.336 685.765 154.92 685.244 153.553C684.756 152.186 683.779 151.502 682.314 151.502C679.84 151.502 678.604 152.804 678.604 155.408C678.604 158.045 679.645 160.112 681.729 161.609L692.568 169.52C695.954 171.961 698.786 174.858 701.064 178.211C703.376 181.564 704.531 186.023 704.531 191.59C704.531 198.491 702.562 203.748 698.623 207.361C694.717 210.975 689.346 212.781 682.51 212.781ZM741.006 212L732.168 138.758H747.158L751.992 178.113L756.24 138.758H772.988L778.018 178.113L782.07 138.758H797.109L788.174 212H769.766L764.492 170.447L759.902 212H741.006ZM802.871 134.266V119.715H820.352V134.266H802.871ZM802.871 212V138.758H820.352V212H802.871ZM842.324 212.781C837.604 212.781 834.414 211.788 832.754 209.803C831.126 207.785 830.312 204.708 830.312 200.574V154.92H825.381V141.59H830.312V126.062H847.305V141.59H852.236V154.92H847.305V196.473C847.305 197.677 847.5 198.523 847.891 199.012C848.281 199.5 849.03 199.744 850.137 199.744C850.918 199.744 851.618 199.679 852.236 199.549V211.463C851.846 211.593 850.625 211.837 848.574 212.195C846.523 212.586 844.44 212.781 842.324 212.781ZM857.852 212V126.062H875.82V146.033C876.764 143.299 878.213 141.281 880.166 139.979C882.119 138.644 884.398 137.977 887.002 137.977C892.08 137.977 895.775 139.572 898.086 142.762C900.397 145.952 901.553 150.232 901.553 155.604V212H883.877V156.727C883.877 155.132 883.535 153.829 882.852 152.82C882.201 151.811 881.159 151.307 879.727 151.307C878.522 151.307 877.562 151.827 876.846 152.869C876.162 153.911 875.82 155.148 875.82 156.58V212H857.852ZM929.824 212L938.125 126.062H967.275L975.43 212H959.17L957.949 198.133H947.598L946.523 212H929.824ZM948.818 184.412H956.631L952.871 140.711H952.09L948.818 184.412ZM979.922 212V126.062H996.523V212H979.922Z" fill="url(#paint0_linear_71_403)"/>
<defs>
<filter id="filter0_d_71_403" x="3.23535" y="0.742188" width="1378.75" height="217.125" filterUnits="userSpaceOnUse" color-interpolation-filters="sRGB">
<feFlood flood-opacity="0" result="BackgroundImageFix"/>
<feColorMatrix in="SourceAlpha" type="matrix" values="0 0 0 0 0 0 0 0 0 0 0 0 0 0 0 0 0 0 127 0" result="hardAlpha"/>
<feOffset dy="4"/>
<feGaussianBlur stdDeviation="2"/>
<feComposite in2="hardAlpha" operator="out"/>
<feColorMatrix type="matrix" values="0 0 0 0 0 0 0 0 0 0 0 0 0 0 0 0 0 0 0.25 0"/>
<feBlend mode="normal" in2="BackgroundImageFix" result="effect1_dropShadow_71_403"/>
<feBlend mode="normal" in="SourceGraphic" in2="effect1_dropShadow_71_403" result="shape"/>
</filter>
<linearGradient id="paint0_linear_71_403" x1="693" y1="152.252" x2="693" y2="187.748" gradientUnits="userSpaceOnUse">
<stop stop-color="#D71D89"/>
<stop offset="1" stop-color="#3B0C26"/>
</linearGradient>
</defs>
</svg>
